inDegrees=no
num_controls=7
num_derivatives=13
num_iterations=240
num_multipliers=7
num_parameters=0
num_slacks=7
num_states=26
objective=0.526301
objective_accelerations=0.012467
objective_balance=0.001890
objective_effort=0.020779
objective_height=0.479134
objective_ligament=0.012030
solver_duration=3083.422783
status=Solve_Succeeded
success=true
DataType=double
version=3
OpenSimVersion=4.5
endheader
time	/jointset/ground_pelvis/pelvis_tilt/value	/jointset/ground_pelvis/pelvis_tx/value	/jointset/ground_pelvis/pelvis_ty/value	/jointset/hip_l/hip_flexion_l/value	/jointset/hip_l/hip_adduction_l/value	/jointset/hip_l/hip_rotation_l/value	/jointset/back/lumbar_extension/value	/jointset/patellofemoral_l/patellar_flexion_l/value	/jointset/knee_l/knee_flexion_l/value	/jointset/knee_l/knee_adduction_l/value	/jointset/knee_l/knee_rotation_l/value	/jointset/ankle_l/ankle_angle_l/value	/jointset/subtalar_l/subtalar_angle_l/value	/jointset/ground_pelvis/pelvis_tilt/speed	/jointset/ground_pelvis/pelvis_tx/speed	/jointset/ground_pelvis/pelvis_ty/speed	/jointset/hip_l/hip_flexion_l/speed	/jointset/hip_l/hip_adduction_l/speed	/jointset/hip_l/hip_rotation_l/speed	/jointset/back/lumbar_extension/speed	/jointset/patellofemoral_l/patellar_flexion_l/speed	/jointset/knee_l/knee_flexion_l/speed	/jointset/knee_l/knee_adduction_l/speed	/jointset/knee_l/knee_rotation_l/speed	/jointset/ankle_l/ankle_angle_l/speed	/jointset/subtalar_l/subtalar_angle_l/speed	/forceset/tau_hip_flexion_l	/forceset/tau_hip_adduction_l	/forceset/tau_hip_rotation_l	/forceset/tau_knee_flexion_l	/forceset/tau_ankle_angle_l	/forceset/tau_subtalar_angle_l	/forceset/tau_lumbar_extension	lambda_cid13_p0	lambda_cid13_p1	lambda_cid13_p2	lambda_cid13_p3	lambda_cid13_p4	lambda_cid13_p5	lambda_cid14_p0	/jointset/ground_pelvis/pelvis_tilt/accel	/jointset/ground_pelvis/pelvis_tx/accel	/jointset/ground_pelvis/pelvis_ty/accel	/jointset/hip_l/hip_flexion_l/accel	/jointset/hip_l/hip_adduction_l/accel	/jointset/hip_l/hip_rotation_l/accel	/jointset/back/lumbar_extension/accel	/jointset/patellofemoral_l/patellar_flexion_l/accel	/jointset/knee_l/knee_flexion_l/accel	/jointset/knee_l/knee_adduction_l/accel	/jointset/knee_l/knee_rotation_l/accel	/jointset/ankle_l/ankle_angle_l/accel	/jointset/subtalar_l/subtalar_angle_l/accel	gamma_cid13_p0	gamma_cid13_p1	gamma_cid13_p2	gamma_cid13_p3	gamma_cid13_p4	gamma_cid13_p5	gamma_cid14_p0
0	-0.03682361124169058	0.05667780239437602	0.9203415768664125	0.3085816938045678	-0.2956402052523108	-0.3016057673974621	-0.3879492264334186	0.249926942118491	0.2499269421184919	-0.1745327664887284	-0.1745311758367915	-0.0008036623358878681	0.0004378619974857572	0	0	0	0	0	0	0	0	0	0	0	0	0	0.01140959548178417	-0.02415801467144323	-0.01534895612127458	-0.2061292614954138	0.161208188638026	0.0006644328531352539	0.06612653182781254	6.309975358977453	-4.220836473922098	3.448228557081615	2.948486050296407	-672.4399659164366	-79.37710169211077	-23.19706294481938	0.4140075914371978	-0.9214928050064537	-0.17392538493526	1.853905080238532	-0.0284877617758785	0.6287334719351534	-4.794279806261053	1.854561009131877	1.854561009131801	0.5299198376900167	-0.0006566860455599227	-0.2578845131500353	-0.1266780292302051	9.037747086209755e-10	7.50841431836627e-09	-1.320763141622978e-09	4.342638010210595e-10	3.615061996493414e-09	1.910167907108023e-09	1.201260482798206e-09
0.01	-0.03680249161684112	0.05663195702483471	0.9203330118678944	0.3086725912301811	-0.2956419083818854	-0.3015741677160549	-0.3881879939157429	0.250018047541842	0.2500180475418442	-0.1745074266888947	-0.1745306836507369	-0.0008170575415436835	0.0004310643616357974	0.004212771592704259	-0.009153078680647506	-0.001710450715142274	0.01812747042147711	-0.000354148560385883	0.006294981516510987	-0.04761671408984315	0.01815629751945229	0.01815629751945273	0.005019191811904977	8.862061458713748e-05	-0.002696526945242137	-0.001379227139304309	0.009521313245128959	-0.03216278182867319	-0.01495126395643591	-0.2039363773131611	0.1555592016422081	0.009797026835996024	0.0677339583761246	4.821019296156463	-7.868654917437037	3.963812849848257	3.335462914803251	-672.9448577857415	-86.93527860842984	-23.19803590405864	0.4232388926812431	-0.9098160284637772	-0.1692218435196664	1.784365826185271	-0.0409079488520774	0.6261378623325158	-4.724849854161931	1.786445810413503	1.786445810413619	0.4806048195165598	0.01214844861498926	-0.2781594081560846	-0.1465010958710504	9.559904862757076e-10	9.246600302297966e-09	2.358185725411416e-09	3.690546230906424e-10	5.038603978670735e-09	2.921205537727743e-09	8.445556585449227e-10
0.02	-0.03673957888616492	0.05649506074271308	0.9203074189764816	0.3089432029206261	-0.2956475589062014	-0.3014803667453179	-0.3888988250677296	0.250288772277804	0.250288772277804	-0.1744333577776268	-0.1745295998558572	-0.0008579425412407913	0.0004098832464746999	0.008358621165165944	-0.01821018251606608	-0.003405578578940359	0.03594285296626969	-0.0007894789480620859	0.01244025786596028	-0.094412733932333	0.0359238625213688	0.03592386252137009	0.009745822286844574	0.0001183217653387883	-0.005497958808274641	-0.002876695862228121	0.007633031008482249	-0.0401675489858866	-0.01455357179163787	-0.2017434931308928	0.1499102146463998	0.01892962081887777	0.06934138492443161	3.346340571349419	-11.51784984271128	4.478333396701536	3.738082812971851	-673.2099712355109	-94.47299068900244	-23.20095185591511	0.4006231873886312	-0.9022978359606197	-0.1708608146664221	1.791487504901614	-0.04472412723395396	0.5987924385227995	-4.63014095679042	1.776814505624715	1.776814505624721	0.4714075702969179	-0.01244057881267297	-0.2788654967080567	-0.1503263459540992	1.00820626393044e-09	1.098478628622966e-08	6.037134592445811e-09	3.038454451602254e-10	6.462145960848056e-09	3.932243168347463e-09	4.878508342916392e-10
0.03	-0.03663550894575111	0.05626862182538474	0.920265037388717	0.3093895242708661	-0.2956577477177524	-0.3013260705252488	-0.3900718763482608	0.250734900971622	0.250734900971627	-0.1743131356198916	-0.1745284824873701	-0.0009267297737470022	0.0003735881020789877	0.01245220695542063	-0.0270066424947637	-0.005058987401192714	0.05317506387922526	-0.001240568588113334	0.01838214915047804	-0.1399019107569142	0.05320269392502592	0.05320269392502665	0.01428182035610182	0.0001071523173092463	-0.008212959600847836	-0.004357730893674597	0.004477149256508901	-0.03559129662520254	-0.01426849238353652	-0.1994365777872941	0.1493758231098935	0.01624776943281825	0.07243984210280881	3.036360556317169	-10.34166199870867	4.339722451483522	3.331169444612997	-674.2943968332122	-91.58079245678411	-23.2057766294384	0.413252079049981	-0.8576762499623928	-0.1608168819049989	1.667134805909593	-0.04414611706952386	0.5863612882908426	-4.463964332830191	1.688540014010741	1.688540014010664	0.4421796259640465	0.004845788324072803	-0.2608375909829939	-0.1433042617513463	-2.551355880990054e-10	9.293797275750641e-09	8.279660441540371e-09	1.816015674698243e-09	-5.702320583708038e-10	1.725653920545376e-09	1.914601649199885e-10
